
<svg width="220" height="32" viewBox="0 0 220 32" fill="none" xmlns="http://www.w3.org/2000/svg">
<path fill-rule="evenodd" clip-rule="evenodd" d="M0 0H5.06257H9.88714H9.94181L13.9462 3.41926L25.6313 13.2617C26.0944 13.6513 25.8211 14.4079 25.2132 14.4079H13.2515C11.9488 14.4079 10.6912 13.9475 9.69415 13.1104L5.72193 9.76517C5.40673 9.49794 4.92427 9.72331 4.92427 10.1386V21.9805C4.92427 22.6952 5.49035 23.2748 6.19152 23.2748H12.4474C13.0167 23.2748 13.3094 23.9541 12.9202 24.3695L5.76374 32H4.92427H0V0ZM16.7959 17.5921C16.1912 17.5921 15.9146 18.3487 16.3778 18.7383L28.0629 28.5807L32.0705 32H32.1251H38.114H42.0123V0H36.8371L29.1789 7.61767C28.7705 8.02656 29.0567 8.72844 29.6389 8.72844H35.8208C36.5187 8.72844 37.088 9.30798 37.088 10.0227V21.8614C37.088 22.2767 36.6056 22.5021 36.2871 22.2348L32.3149 18.8896C31.3211 18.0525 30.0602 17.5921 28.7608 17.5921H16.7959Z" fill="#9DC93C"/>
<path fill-rule="evenodd" clip-rule="evenodd" d="M108.064 17.3865C108.621 22.7827 112.76 26.746 119.193 26.746C125.285 26.746 129.302 23.5844 129.952 18.4651H125.005C124.51 21.1857 122.223 22.6507 119.254 22.6507C115.845 22.6507 113.481 20.8412 113.027 17.3898H108.064V17.3865ZM113.024 14.8881C113.468 11.4431 115.838 9.62399 119.254 9.62399C122.223 9.62399 124.51 11.0567 125.005 13.7805H129.952C129.302 8.68708 125.285 5.52861 119.193 5.52861C112.747 5.52861 108.605 9.50487 108.061 14.8913H113.024V14.8881ZM60.4492 26.4531H65.7305L68.8761 23.1787H65.9749C65.6565 23.1787 65.396 22.9211 65.396 22.5991V12.3542C65.396 11.7457 66.213 11.5493 66.4896 12.0902L73.8454 26.4531H82.0311V5.8216H77.0843L77.5056 20.0943C77.5217 20.7092 76.6951 20.9249 76.4121 20.3776L68.8633 5.8216H60.4492V26.4531ZM85.151 26.4531H90.8407L92.822 23.7582L95.6942 19.8946C96.2024 19.2121 97.2252 19.2121 97.7334 19.8946L102.619 26.4563H108.309L101.024 16.2371H99.229L106.463 5.8216H102.619L97.7366 12.3575C97.2252 13.04 96.2056 13.0368 95.6975 12.3542L90.8407 5.8216H86.5179L93.9349 16.2339H92.0501L85.151 26.4531ZM136.632 26.4627H151.958L148.536 22.3641H140.193C139.492 22.3641 138.922 21.7942 138.922 21.0924V5.8216H133.972V24.0061C133.972 25.6127 134.931 26.4917 136.632 26.4627ZM161.585 26.746C155.149 26.746 151.064 22.7827 150.514 17.3865H155.474C155.882 20.6319 157.925 22.6474 161.585 22.6474C165.695 22.6474 167.738 20.1007 167.738 16.1212C167.738 12.1707 165.695 9.62399 161.585 9.62399C157.915 9.62399 155.873 11.6491 155.474 14.8881H150.514C151.051 9.50487 155.139 5.52539 161.585 5.52539C168.478 5.52539 172.685 10.1198 172.685 16.118C172.685 22.1516 168.478 26.746 161.585 26.746ZM176.412 18.5038C176.412 23.6552 179.783 26.4627 186.245 26.4627C192.707 26.4627 196.109 23.652 196.109 18.5038V5.8216H191.163V16.4271C191.163 20.1136 190.79 22.3673 186.245 22.3673C181.7 22.3673 181.359 20.1136 181.359 16.4271V5.8216H176.412V18.5038ZM200.13 5.8216H208.168C213.7 5.8216 219.457 7.11911 220.001 14.8913H215.044C214.633 10.1713 211.744 9.9202 208.168 9.9202H205.077V20.0428C205.077 21.3209 206.112 22.3577 207.389 22.3577H208.168C211.738 22.3577 214.623 22.1065 215.041 17.3898H219.997C219.444 25.1588 213.693 26.4563 208.168 26.4563H200.13V5.8216Z" fill="#9DC93C"/>
</svg>
